<svg width="76" height="76" viewBox="0 0 76 76" fill="none" xmlns="http://www.w3.org/2000/svg">
<path d="M37.7376 71.2627H37.6378V70.0141H37.7376C38.1372 70.0141 38.5367 70.0141 38.9862 70.0141L39.0362 71.2627C38.5867 71.2127 38.1871 71.2627 37.7376 71.2627ZM35.64 71.1628C35.1905 71.1128 34.7909 71.1128 34.3914 71.0629L34.5412 69.8143C34.9408 69.8642 35.3403 69.8642 35.7399 69.9142L35.64 71.1628ZM41.0839 71.0629L40.984 69.8143C41.3836 69.7644 41.7831 69.7144 42.1827 69.6645L42.3325 70.9131C41.9329 70.963 41.4834 71.013 41.0839 71.0629ZM32.3437 70.8132C31.9441 70.7632 31.4946 70.6634 31.0951 70.5635L31.3448 69.3648C31.7444 69.4647 32.1439 69.5146 32.5435 69.5646L32.3437 70.8132ZM44.3302 70.6134L44.0805 69.3648C44.4801 69.2649 44.8796 69.215 45.2792 69.1151L45.5788 70.3137C45.1793 70.4136 44.7797 70.5135 44.3302 70.6134ZM29.0973 70.114C28.6978 70.0141 28.2982 69.8643 27.8487 69.7644L28.1983 68.5657C28.5979 68.6656 28.9974 68.8154 29.397 68.9153L29.0973 70.114ZM47.5267 69.7644L47.1771 68.5657C47.5766 68.4658 47.9762 68.316 48.3258 68.1661L48.7253 69.3648C48.3757 69.5146 47.9762 69.6645 47.5267 69.7644ZM25.9509 69.0651C25.5513 68.9153 25.1518 68.7655 24.7522 68.5657L25.2516 67.417C25.6512 67.5668 26.0008 67.7167 26.4004 67.8665L25.9509 69.0651ZM50.6731 68.6156L50.1737 67.4669C50.5732 67.3171 50.9228 67.1173 51.2725 66.9675L51.8218 68.1162C51.4722 68.316 51.0727 68.4658 50.6731 68.6156ZM22.9043 67.7666C22.5047 67.5668 22.1551 67.367 21.7556 67.1673L22.3549 66.0685C22.7045 66.2683 23.0541 66.4681 23.4537 66.6179L22.9043 67.7666ZM53.6698 67.2172L53.0704 66.1184C53.42 65.9187 53.7697 65.7189 54.1193 65.5191L54.7685 66.5679C54.4189 66.7677 54.0194 67.0174 53.6698 67.2172ZM20.0075 66.1184C19.6579 65.8687 19.3083 65.669 18.9587 65.4192L19.6579 64.3704C20.0075 64.6201 20.3571 64.8199 20.6568 65.0197L20.0075 66.1184ZM56.4666 65.4692L55.7674 64.4203C56.117 64.1706 56.4167 63.9709 56.7663 63.7211L57.5155 64.72C57.1658 64.9697 56.8162 65.2195 56.4666 65.4692ZM17.3106 64.2206C16.961 63.9709 16.6613 63.6712 16.3117 63.4215L17.1108 62.4725C17.4104 62.7223 17.7601 62.972 18.0597 63.2217L17.3106 64.2206ZM59.1137 63.4714L58.3146 62.5225C58.6142 62.2728 58.9139 61.9731 59.2635 61.7234L60.1125 62.6723C59.7629 62.922 59.4633 63.1718 59.1137 63.4714ZM61.5609 61.2239L60.6619 60.3749C60.9616 60.0752 61.2113 59.7756 61.511 59.4759L62.4599 60.3249C62.1602 60.5747 61.8606 60.9243 61.5609 61.2239ZM12.5159 59.6757C12.2163 59.376 11.9666 59.0264 11.7168 58.6768L12.7157 57.8777C12.9654 58.1774 13.2152 58.527 13.5148 58.8266L12.5159 59.6757ZM63.7584 58.7267L62.7596 57.9276C63.0093 57.628 63.259 57.2784 63.5087 56.9787L64.5076 57.7279C64.2579 58.0775 64.0082 58.3771 63.7584 58.7267ZM10.5182 57.0286C10.2685 56.679 10.0187 56.3294 9.81896 55.9798L10.8678 55.2806C11.0676 55.6302 11.3173 55.9798 11.567 56.2795L10.5182 57.0286ZM65.7063 56.0298L64.6574 55.3305C64.8572 54.9809 65.1069 54.6313 65.3067 54.2817L66.3555 54.931C66.1558 55.3305 65.906 55.6802 65.7063 56.0298ZM8.7202 54.2318C8.52042 53.8822 8.32064 53.4826 8.12087 53.0831L9.21964 52.5337C9.41941 52.8833 9.61919 53.2828 9.81896 53.6325L8.7202 54.2318ZM67.3544 53.183L66.2556 52.6336C66.4554 52.284 66.6053 51.8844 66.805 51.5348L67.9537 52.0842C67.704 52.4338 67.5542 52.7834 67.3544 53.183ZM7.27182 51.2851C7.12199 50.8855 6.92221 50.486 6.77238 50.0864L7.92109 49.6369C8.07092 50.0365 8.22076 50.3861 8.37059 50.7856L7.27182 51.2851ZM68.7029 50.1364L67.5542 49.6869C67.704 49.2873 67.8539 48.9377 68.0037 48.5382L69.2023 48.9377C69.0026 49.3872 68.8527 49.7868 68.7029 50.1364ZM6.07317 48.1386C5.92333 47.7391 5.82345 47.3395 5.72356 46.94L6.92221 46.5904C7.0221 46.9899 7.17193 47.3895 7.27182 47.789L6.07317 48.1386ZM69.7517 47.0398L68.5531 46.6902C68.653 46.2907 68.7528 45.8911 68.8527 45.4916L70.0514 45.7912C70.0014 46.1908 69.8516 46.5904 69.7517 47.0398ZM5.22412 44.9422C5.12423 44.5427 5.07429 44.0932 4.9744 43.6936L6.223 43.4938C6.27294 43.8934 6.37283 44.2929 6.47272 44.6925L5.22412 44.9422ZM70.5009 43.7935L69.2523 43.5937C69.3022 43.1942 69.4021 42.7946 69.4521 42.3951L70.7007 42.5449C70.6507 42.9444 70.5508 43.3939 70.5009 43.7935ZM4.72468 41.6958C4.67473 41.2963 4.62479 40.8468 4.62479 40.4472L5.87339 40.3474C5.92333 40.7469 5.92333 41.1465 5.97328 41.546L4.72468 41.6958ZM4.5249 38.3995V38C4.5249 37.7003 4.5249 37.4007 4.5249 37.101L5.7735 37.1509C5.7735 37.4506 5.7735 37.7503 5.7735 38V38.3496L4.5249 38.3995ZM5.87339 35.1532L4.62479 35.0533C4.67473 34.6038 4.72468 34.2042 4.77462 33.8047L6.02322 33.9545C5.97328 34.3541 5.92333 34.7536 5.87339 35.1532ZM69.502 34.0544C69.4521 33.6549 69.4021 33.2553 69.3522 32.8558L70.6008 32.656C70.6507 33.0555 70.7506 33.505 70.8005 33.9046L69.502 34.0544ZM6.32289 32.0067L5.07429 31.757C5.17417 31.3574 5.22412 30.9079 5.32401 30.5084L6.52266 30.8081C6.47272 31.2076 6.37283 31.6072 6.32289 32.0067ZM68.9526 30.9079C68.8527 30.5084 68.7528 30.1088 68.653 29.7093L69.8516 29.4096C69.9515 29.8092 70.0514 30.2087 70.1513 30.6582L68.9526 30.9079ZM7.07204 28.9102L5.87339 28.5606C5.97328 28.161 6.12311 27.7615 6.27294 27.3619L7.4716 27.7615C7.32176 28.1111 7.17193 28.5106 7.07204 28.9102ZM68.1036 27.8114C67.9537 27.4119 67.8539 27.0123 67.704 26.6627L68.8527 26.2132C69.0026 26.6128 69.1524 27.0123 69.3022 27.4119L68.1036 27.8114ZM8.12087 25.9135L6.97216 25.4641C7.12199 25.0645 7.32176 24.6649 7.4716 24.3153L8.62031 24.8148C8.42053 25.1644 8.2707 25.514 8.12087 25.9135ZM66.9549 24.8647C66.805 24.5151 66.6053 24.1156 66.4055 23.766L67.5042 23.2166C67.704 23.6161 67.8539 23.9657 68.0536 24.3653L66.9549 24.8647ZM9.46936 23.0168L8.37059 22.4175C8.57036 22.0179 8.77014 21.6683 8.96992 21.3187L10.0687 21.968C9.86891 22.3176 9.66913 22.6672 9.46936 23.0168ZM65.4565 22.0179C65.2568 21.6683 65.057 21.3187 64.8073 20.9691L65.8561 20.3198C66.1058 20.6694 66.3056 21.019 66.5054 21.4186L65.4565 22.0179ZM11.1175 20.2699L10.0687 19.5707C10.3184 19.2211 10.5681 18.8714 10.8178 18.5218L11.8167 19.271C11.567 19.6206 11.3173 19.9702 11.1175 20.2699ZM63.7584 19.3209C63.5087 18.9713 63.259 18.6717 63.0093 18.3221L64.0082 17.5729C64.2579 17.9225 64.5076 18.2721 64.7573 18.5718L63.7584 19.3209ZM61.7607 16.8237C61.511 16.5241 61.2113 16.2244 60.9116 15.9248L61.8106 15.0757C62.1103 15.3754 62.41 15.675 62.6597 16.0246L61.7607 16.8237ZM59.5132 14.5763C59.2135 14.2766 58.9139 14.0269 58.6142 13.7772L59.4133 12.8282C59.713 13.1279 60.0626 13.3776 60.3623 13.6773L59.5132 14.5763ZM17.5103 13.2278L16.7112 12.2788C17.0608 12.0291 17.3605 11.7295 17.7101 11.4797L18.4593 12.4786C18.1596 12.7283 17.81 12.9781 17.5103 13.2278ZM57.066 12.5286C56.7163 12.2788 56.4167 12.0291 56.0671 11.8293L56.7663 10.8305C57.1159 11.0802 57.4655 11.3299 57.8151 11.5796L57.066 12.5286ZM20.0575 11.3299L19.3583 10.2811C19.7079 10.0314 20.0575 9.83159 20.457 9.58187L21.1063 10.6307C20.7567 10.8804 20.4071 11.1301 20.0575 11.3299ZM54.4689 10.7306C54.1193 10.5308 53.7697 10.331 53.42 10.1313L54.0194 9.03249C54.369 9.23226 54.7685 9.43204 55.1181 9.68176L54.4689 10.7306ZM22.8044 9.68176L22.2051 8.58299C22.6046 8.38321 22.9542 8.18344 23.3538 7.98366L23.9032 9.13237C23.5536 9.33215 23.154 9.53193 22.8044 9.68176ZM51.672 9.18232C51.3224 8.98254 50.9228 8.83271 50.5732 8.68288L51.0727 7.53417C51.4722 7.684 51.8218 7.88377 52.2214 8.08355L51.672 9.18232ZM25.7011 8.33327L25.2516 7.18456C25.6512 7.03473 26.0508 6.8849 26.4503 6.73506L26.8998 7.93372C26.4503 8.03361 26.1007 8.18344 25.7011 8.33327ZM48.7253 7.93372C48.3258 7.78389 47.9762 7.684 47.5766 7.53417L47.9762 6.33551C48.3757 6.48534 48.7753 6.58523 49.1748 6.73506L48.7253 7.93372ZM28.6978 7.28445L28.3482 6.08579C28.7477 5.9859 29.1473 5.83607 29.5968 5.73618L29.8964 6.93484C29.4969 7.08467 29.0973 7.18456 28.6978 7.28445ZM45.6787 6.98478C45.2792 6.8849 44.8796 6.78501 44.4801 6.68512L44.7298 5.48646C45.1293 5.58635 45.5788 5.68624 45.9784 5.78613L45.6787 6.98478ZM31.8443 6.53529L31.5945 5.28669C31.9941 5.1868 32.4436 5.13686 32.8431 5.08691L33.0429 6.33551C32.6434 6.4354 32.2438 6.48534 31.8443 6.53529ZM42.5822 6.38546C42.1827 6.33551 41.7831 6.28557 41.3836 6.23562L41.4834 4.98702C41.883 5.03697 42.3325 5.08691 42.732 5.13686L42.5822 6.38546ZM34.9907 6.13574L34.8908 4.88714C35.2904 4.83719 35.7399 4.83719 36.1394 4.78725L36.1894 6.03585C35.7898 6.08579 35.3903 6.08579 34.9907 6.13574ZM39.3858 6.03585C38.9862 6.03585 38.5867 6.03585 38.1871 5.9859V4.7373C38.6366 4.7373 39.0362 4.7373 39.4857 4.78725L39.3858 6.03585Z" fill="#1F2834" stroke="#1F2834" stroke-width="0.5"/>
<path d="M43.3077 10.8369L40.9565 13.188L43.3077 15.5391L45.6588 13.188L43.3077 10.8369Z" fill="#0FD297"/>
<path d="M13.0577 39.1179L10.7065 41.469L13.0576 43.8201L15.4088 41.469L13.0577 39.1179Z" fill="#0FD297"/>
<path d="M62.1372 37.4209L59.7861 39.772L62.1372 42.1231L64.4884 39.772L62.1372 37.4209Z" fill="#0FD297"/>
<path d="M59.7502 28.2039L58.332 29.6221L59.7502 31.0402L61.1683 29.6221L59.7502 28.2039Z" fill="#0FD297"/>
<path d="M25.4381 56.2865L24.02 57.7046L25.4381 59.1227L26.8563 57.7046L25.4381 56.2865Z" fill="#0FD297"/>
<path d="M52.701 17.7506L51.7681 16.8176L50.8351 17.7506L51.7681 18.6836L52.701 17.7506Z" fill="black"/>
<path d="M19.0043 54.4491L18.0713 53.5161L17.1383 54.4491L18.0713 55.3821L19.0043 54.4491Z" fill="#0FD297"/>
<path d="M45.1864 61.8737L44.2534 60.9407L43.3204 61.8737L44.2534 62.8066L45.1864 61.8737Z" fill="#0FD297"/>
<path d="M26.7772 13.1566L25.8442 12.2236L24.9113 13.1566L25.8442 14.0896L26.7772 13.1566Z" fill="#0FD297"/>
<path d="M63.0707 49.4745L62.1377 48.5415L61.2047 49.4745L62.1377 50.4075L63.0707 49.4745Z" fill="black"/>
<path d="M54.9115 53.4872L53.9785 52.5542L53.0455 53.4872L53.9785 54.4202L54.9115 53.4872Z" fill="black"/>
<path d="M14.0062 30.1561L13.0732 29.2231L12.1403 30.1561L13.0732 31.0891L14.0062 30.1561Z" fill="black"/>
<path d="M30.9139 64.7382L29.981 63.8052L29.048 64.7382L29.981 65.6711L30.9139 64.7382Z" fill="black"/>
<path fill-rule="evenodd" clip-rule="evenodd" d="M55 38C55 47.3888 47.165 55 37.5 55C27.835 55 20 47.3888 20 38C20 28.6112 27.835 21 37.5 21C47.165 21 55 28.6112 55 38ZM30 41V31.5L30.4935 31.4452C33.1365 31.1515 35.6912 30.3193 38 29C40.3088 30.3193 42.8635 31.1515 45.5065 31.4452L46 31.5V41L38 47L30 41ZM43.2342 33.5755L37.7342 40.2977L37.2657 40.8704L36.6972 40.3967L33.0305 37.3411L33.9695 36.2144L37.0677 38.7962L42.0991 32.6467L43.2342 33.5755Z" fill="#0FD297"/>
<rect x="36" y="48" width="1" height="1" fill="white"/>
<rect x="39" y="48" width="1" height="1" fill="white"/>
</svg>
