<svg width="76" height="76" viewBox="0 0 76 76" fill="none" xmlns="http://www.w3.org/2000/svg">
<g clip-path="url(#clip0)">
<g clip-path="url(#clip1)">
<path opacity="0.5" d="M29.9233 65.1867C45.7514 70.0844 62.553 61.2235 67.4507 45.3954C72.3483 29.5673 63.4875 12.7657 47.6593 7.86803C31.8312 2.97035 15.0296 11.8312 10.132 27.6593C5.23429 43.4875 14.0952 60.289 29.9233 65.1867Z" fill="#E3E3E3"/>
<path d="M8.08049 60.686L7.3344 59.2713L8.74911 58.5252L9.4952 59.9399L8.08049 60.686ZM11.2711 59.0033L10.525 57.5886L11.9421 56.8348L12.6958 58.2519L11.2711 59.0033ZM14.4617 57.3206L13.7156 55.9059L15.1303 55.1598L15.8764 56.5745L14.4617 57.3206ZM17.6523 55.6379L16.9062 54.2232L18.3209 53.4771L19.067 54.8919L17.6523 55.6379ZM20.8453 53.9476L20.0992 52.5329L21.5139 51.7868L22.26 53.2015L20.8453 53.9476ZM24.0436 52.2673L23.2975 50.8526L24.7122 50.1065L25.4583 51.5212L24.0436 52.2673Z" fill="#0FD297"/>
<path d="M50.0805 20.686L49.3344 19.2713L50.7491 18.5252L51.4928 19.9475L50.0805 20.686ZM53.2711 19.0033L52.525 17.5886L53.9397 16.8425L54.6834 18.2649L53.2711 19.0033ZM56.4717 17.3153L55.718 15.8983L57.1404 15.1545L57.8865 16.5692L56.4717 17.3153ZM59.6624 15.6327L58.9163 14.218L60.331 13.4719L61.0771 14.8866L59.6624 15.6327ZM62.853 13.95L62.1069 12.5353L63.5216 11.7892L64.2677 13.2039L62.853 13.95ZM66.0436 12.2673L65.2898 10.8502L66.7045 10.1041L67.4506 11.5188L66.0436 12.2673Z" fill="#1F2834"/>
<path fill-rule="evenodd" clip-rule="evenodd" d="M68.7698 62.7484L70.5494 61.7794L69.5804 59.9998L67.8008 60.9688L68.7698 62.7484ZM67.1494 63.6308L65.3698 64.5998L64.4008 62.8202L66.1804 61.8512L67.1494 63.6308ZM63.749 65.4822L61.9694 66.4512L61.0004 64.6716L62.78 63.7026L63.749 65.4822Z" fill="#F0F0F0"/>
<path d="M74.617 28.2772L58.0879 36.9944L59.0331 38.7867L75.5622 30.0696L74.617 28.2772Z" fill="black"/>
<path d="M73.0483 37.5154L73.2261 37.5704L73.2812 37.3926L75.9257 28.8462L75.9807 28.6683L75.8029 28.6133L67.2552 25.9684L67.0774 25.9134L67.0223 26.0912L66.6396 27.328L66.5846 27.5059L66.7625 27.5609L73.9359 29.7806L71.7292 36.9123L71.6741 37.0902L71.852 37.1452L73.0483 37.5154Z" fill="black" stroke="black" stroke-width="0.372349"/>
<path d="M2.06075 45.5638L18.5898 36.8467L17.6446 35.0543L1.11551 43.7715L2.06075 45.5638Z" fill="black"/>
<path d="M3.62945 36.3259L3.4516 36.2709L3.39656 36.4488L0.75206 44.9952L0.697027 45.173L0.874881 45.228L9.42251 47.8729L9.60036 47.928L9.65539 47.7501L10.0381 46.5133L10.0931 46.3354L9.91528 46.2804L2.74182 44.0607L4.94858 36.929L5.00361 36.7511L4.82576 36.6961L3.62945 36.3259Z" fill="black" stroke="black" stroke-width="0.372349"/>
<rect x="20" y="17" width="40" height="40" rx="20" fill="white"/>
</g>
<path fill-rule="evenodd" clip-rule="evenodd" d="M39 58.8525C51.1503 58.8525 61 48.8119 61 36.4262C61 24.0406 51.1503 14 39 14C26.8497 14 17 24.0406 17 36.4262C17 48.8119 26.8497 58.8525 39 58.8525ZM57.5969 37.0577L55.7543 36.9686C55.7673 36.6982 55.7739 36.426 55.7739 36.1521C55.7739 35.8782 55.7673 35.606 55.7543 35.3356L57.5969 35.2465C57.6114 35.5466 57.6187 35.8485 57.6187 36.1521C57.6187 36.4557 57.6114 36.7576 57.5969 37.0577ZM57.4214 33.4442L55.5963 33.7127C55.5166 33.171 55.4108 32.638 55.2801 32.115L57.07 31.668C57.2152 32.2496 57.3329 32.8422 57.4214 33.4442ZM56.545 29.9352L54.8081 30.5568C54.6243 30.0434 54.416 29.5415 54.1844 29.0527L55.8515 28.2628C56.109 28.8062 56.3407 29.3642 56.545 29.9352ZM54.9967 26.6668L53.4152 27.6166C53.1349 27.1499 52.8321 26.6979 52.5085 26.2623L53.9894 25.1622C54.3488 25.6461 54.6851 26.1481 54.9967 26.6668ZM52.84 23.7632L51.4735 25.0025C51.1081 24.5996 50.7233 24.2148 50.3204 23.8494L51.5597 22.4829C52.007 22.8886 52.4343 23.3159 52.84 23.7632ZM50.1607 21.3335L49.0606 22.8144C48.625 22.4908 48.173 22.1881 47.7063 21.9077L48.6562 20.3263C49.1748 20.6378 49.6769 20.9741 50.1607 21.3335ZM47.0601 19.4714L46.2702 21.1386C45.7814 20.907 45.2796 20.6986 44.7661 20.5148L45.3877 18.7779C45.9587 18.9823 46.5167 19.214 47.0601 19.4714ZM43.6549 18.2529L43.208 20.0428C42.6849 19.9122 42.1519 19.8063 41.6102 19.7267L41.8787 17.9015C42.4807 17.9901 43.0733 18.1077 43.6549 18.2529ZM40.0764 17.726L39.9873 19.5687C39.717 19.5556 39.4447 19.549 39.1708 19.549C38.8969 19.549 38.6247 19.5556 38.3543 19.5687L38.2653 17.726C38.5653 17.7115 38.8672 17.7042 39.1708 17.7042C39.4745 17.7042 39.7764 17.7115 40.0764 17.726ZM36.4629 17.9015L36.7314 19.7267C36.1897 19.8063 35.6567 19.9122 35.1337 20.0428L34.6867 18.2529C35.2684 18.1077 35.8609 17.9901 36.4629 17.9015ZM32.954 18.7779L33.5756 20.5148C33.0621 20.6986 32.5602 20.907 32.0714 21.1386L31.2815 19.4714C31.8249 19.214 32.383 18.9823 32.954 18.7779ZM29.6855 20.3263L30.6354 21.9077C30.1686 22.1881 29.7167 22.4908 29.281 22.8144L28.1809 21.3335C28.6648 20.9741 29.1669 20.6378 29.6855 20.3263ZM26.782 22.4829L28.0212 23.8494C27.6184 24.2148 27.2335 24.5997 26.8682 25.0025L25.5016 23.7632C25.9073 23.3159 26.3346 22.8886 26.782 22.4829ZM24.3522 25.1622L25.8331 26.2623C25.5095 26.6979 25.2068 27.1499 24.9264 27.6166L23.345 26.6668C23.6565 26.1481 23.9928 25.6461 24.3522 25.1622ZM22.4902 28.2628L24.1573 29.0527C23.9257 29.5415 23.7173 30.0434 23.5336 30.5568L21.7966 29.9352C22.001 29.3642 22.2327 28.8062 22.4902 28.2628ZM21.2717 31.668L23.0615 32.115C22.9309 32.638 22.8251 33.171 22.7454 33.7127L20.9202 33.4442C21.0088 32.8422 21.1264 32.2496 21.2717 31.668ZM20.7447 35.2465C20.7302 35.5466 20.7229 35.8485 20.7229 36.1521C20.7229 36.4557 20.7302 36.7576 20.7447 37.0577L22.5874 36.9686C22.5743 36.6982 22.5677 36.426 22.5677 36.1521C22.5677 35.8782 22.5743 35.606 22.5874 35.3356L20.7447 35.2465ZM20.9202 38.86L22.7454 38.5915C22.8251 39.1332 22.9309 39.6662 23.0615 40.1892L21.2717 40.6362C21.1264 40.0546 21.0088 39.462 20.9202 38.86ZM21.7966 42.3689L23.5336 41.7474C23.7173 42.2608 23.9257 42.7627 24.1573 43.2515L22.4902 44.0414C22.2327 43.498 22.001 42.94 21.7966 42.3689ZM23.345 45.6374L24.9264 44.6875C25.2068 45.1543 25.5095 45.6063 25.8331 46.0419L24.3522 47.142C23.9928 46.6581 23.6565 46.1561 23.345 45.6374ZM25.5016 48.541L26.8682 47.3017C27.2335 47.7045 27.6184 48.0894 28.0212 48.4547L26.782 49.8213C26.3346 49.4156 25.9073 48.9883 25.5016 48.541ZM28.1809 50.9707L29.281 49.4898C29.7167 49.8134 30.1686 50.1161 30.6354 50.3965L29.6855 51.9779C29.1669 51.6664 28.6648 51.3301 28.1809 50.9707ZM31.2815 52.8328L32.0714 51.1656C32.5602 51.3972 33.0621 51.6056 33.5756 51.7893L32.954 53.5263C32.383 53.3219 31.8249 53.0902 31.2815 52.8328ZM34.6867 54.0513L35.1337 52.2614C35.6567 52.392 36.1897 52.4978 36.7314 52.5775L36.4629 54.4027C35.8609 54.3141 35.2684 54.1965 34.6867 54.0513ZM38.2653 54.5782L38.3543 52.7355C38.6247 52.7486 38.8969 52.7552 39.1708 52.7552C39.4447 52.7552 39.717 52.7486 39.9873 52.7355L40.0764 54.5782C39.7764 54.5927 39.4745 54.6 39.1708 54.6C38.8672 54.6 38.5653 54.5927 38.2653 54.5782ZM41.8787 54.4027L41.6102 52.5775C42.1519 52.4978 42.6849 52.392 43.208 52.2614L43.6549 54.0513C43.0733 54.1965 42.4807 54.3141 41.8787 54.4027ZM45.3877 53.5263L44.7661 51.7893C45.2796 51.6056 45.7814 51.3972 46.2702 51.1656L47.0601 52.8328C46.5167 53.0902 45.9587 53.3219 45.3877 53.5263ZM48.6562 51.9779L47.7063 50.3965C48.173 50.1161 48.625 49.8134 49.0606 49.4898L50.1607 50.9707C49.6769 51.3301 49.1748 51.6664 48.6562 51.9779ZM51.5597 49.8213L50.3204 48.4547C50.7233 48.0894 51.1081 47.7045 51.4735 47.3017L52.84 48.541C52.4343 48.9883 52.007 49.4156 51.5597 49.8213ZM53.9894 47.142L52.5085 46.0419C52.8321 45.6063 53.1349 45.1543 53.4152 44.6875L54.9967 45.6374C54.6851 46.1561 54.3488 46.6581 53.9894 47.142ZM55.8515 44.0414L54.1844 43.2515C54.416 42.7627 54.6243 42.2608 54.8081 41.7474L56.545 42.3689C56.3407 42.94 56.109 43.498 55.8515 44.0414ZM57.07 40.6362L55.2801 40.1892C55.4108 39.6662 55.5166 39.1332 55.5963 38.5915L57.4214 38.86C57.3329 39.462 57.2152 40.0546 57.07 40.6362ZM41.5748 28.5439V25.725H40.2915V28.497H37.5641V25.725H36.2807V28.497H34.3589V44.1729H36.2807V46.5792H37.5641V44.1729H40.2915V46.5792H41.5748V44.1719C42.1217 44.1601 42.6285 44.0482 43.0952 43.836C43.5893 43.5965 44.016 43.2746 44.3753 42.8703C44.7346 42.4661 45.0116 41.987 45.2062 41.433C45.4159 40.879 45.5207 40.2801 45.5207 39.6363C45.5207 38.9925 45.4084 38.446 45.1838 37.9969C44.9742 37.5327 44.7122 37.1584 44.3977 36.874C44.0833 36.5745 43.7465 36.3574 43.3871 36.2227C43.0428 36.0879 42.7283 36.0131 42.4439 35.9981V35.8633C42.6984 35.8184 42.9754 35.7361 43.2748 35.6163C43.5743 35.4815 43.8513 35.2869 44.1058 35.0324C44.3603 34.7629 44.5699 34.426 44.7346 34.0218C44.8993 33.6175 44.9817 33.1234 44.9817 32.5395C44.9817 31.3118 44.6074 30.3311 43.8587 29.5975C43.2766 29.0153 42.5153 28.6641 41.5748 28.5439ZM40.8942 42.511H36.2454V36.8964H40.8942C41.7027 36.8964 42.3391 37.106 42.8032 37.5253C43.2673 37.9295 43.4994 38.5284 43.4994 39.3219V40.0855C43.4994 40.879 43.2673 41.4854 42.8032 41.9046C42.3391 42.3089 41.7027 42.511 40.8942 42.511ZM40.5798 35.2794H36.2454V30.1589H40.5798C41.3284 30.1589 41.9124 30.3461 42.3316 30.7204C42.7508 31.0947 42.9604 31.6337 42.9604 32.3374V33.101C42.9604 33.8047 42.7508 34.3437 42.3316 34.718C41.9124 35.0923 41.3284 35.2794 40.5798 35.2794Z" fill="#0FD297"/>
<path fill-rule="evenodd" clip-rule="evenodd" d="M5.91013 16.3972L7.66497 15.384L6.65181 13.6292L4.89697 14.6423L5.91013 16.3972ZM9.37423 14.3972L11.1291 13.384L10.1159 11.6292L8.36108 12.6423L9.37423 14.3972Z" fill="#0FD297"/>
</g>
<defs>
<clipPath id="clip0">
<rect width="76" height="76" fill="white"/>
</clipPath>
<clipPath id="clip1">
<rect width="77" height="77" fill="white" transform="translate(12.7612 -11) rotate(17.1936)"/>
</clipPath>
</defs>
</svg>
