<svg width="76" height="76" viewBox="0 0 76 76" fill="none" xmlns="http://www.w3.org/2000/svg">
<g clip-path="url(#clip0)">
<path d="M41.5589 19.2423V29.9881C39.5722 28.579 37.3997 27.439 35.098 26.6077V19.2423C35.098 14.334 31.0357 10.3519 26.0285 10.3519C21.0213 10.3519 16.959 14.334 16.959 19.2423V26.5761C14.6573 27.3994 12.4848 28.5315 10.498 29.9406V19.274C10.498 10.8506 17.4678 4.01855 26.0608 4.01855C34.6538 4.01855 41.6235 10.8506 41.6235 19.274L41.5589 19.2423Z" fill="#0FD297"/>
<path d="M51.0319 51.11C51.0319 51.3871 51.0319 51.6562 51.0319 51.9017L49.4167 51.8462C49.4167 51.5929 49.4167 51.3396 49.4167 51.0546C49.4086 38.3721 38.9177 28.1042 25.9797 28.1121C13.0417 28.12 2.56692 38.4037 2.575 51.0862C2.58308 63.7608 13.0659 74.0287 25.9958 74.0287H26.8034L26.8519 75.6121H26.0443C12.2421 75.62 1.04861 64.6475 1.04053 51.1179C1.03246 37.5883 12.226 26.6158 26.0281 26.6079C39.8303 26.6 51.0238 37.5725 51.0319 51.1021V51.11Z" fill="black"/>
<path d="M29.0244 75.4299L28.8306 73.8466C29.3717 73.7833 29.9128 73.6962 30.4458 73.6012L30.7527 75.1845C30.1793 75.2795 29.5978 75.3666 29.0244 75.4299Z" fill="black"/>
<path d="M32.877 74.6699L32.457 73.1499C32.9981 72.9995 33.515 72.8332 34.0076 72.6511L34.5649 74.1395C33.9915 74.3374 33.4342 74.5115 32.877 74.6699Z" fill="black"/>
<path d="M36.5595 73.3241L35.873 71.8912C36.3657 71.6616 36.8503 71.4162 37.3267 71.1628L38.1344 72.5483C37.6013 72.8412 37.0845 73.0866 36.5595 73.3241Z" fill="black"/>
<path d="M39.9758 71.4241L39.0713 70.1178C39.5236 69.817 39.9677 69.4924 40.3877 69.1678L41.3891 70.4187C40.9288 70.767 40.4604 71.1074 39.9758 71.4241Z" fill="black"/>
<path d="M43.0446 69.0253L41.9463 67.8695C42.342 67.5053 42.7539 67.1253 43.1012 66.7374L44.2803 67.8141C43.8846 68.2337 43.4646 68.6374 43.0446 69.0253Z" fill="black"/>
<path d="M45.7018 66.1913L44.4258 65.2096C44.7569 64.7979 45.0799 64.3625 45.3868 63.9192L46.7275 64.8059C46.3964 65.2729 46.0572 65.7163 45.7018 66.1913Z" fill="black"/>
<path d="M47.8664 62.9769L46.4531 62.1853C46.7196 61.7182 46.97 61.2432 47.1961 60.7603L48.6579 61.4253C48.4156 61.9636 48.1491 62.4782 47.8664 62.9769Z" fill="black"/>
<path d="M49.4973 59.4698L47.979 58.9315C48.1648 58.4327 48.3344 57.9181 48.4797 57.4036L50.0303 57.839C49.8769 58.3852 49.6911 58.9394 49.4973 59.4698Z" fill="black"/>
<path d="M50.5395 55.7571L48.9243 55.4642C49.0212 54.9338 49.1101 54.4034 49.1747 53.8809L50.7899 54.0629C50.7414 54.6329 50.6526 55.195 50.5395 55.7571Z" fill="black"/>
<path d="M25.996 58.805C21.6591 58.805 18.146 55.3613 18.146 51.11C18.146 46.8588 21.6591 43.415 25.996 43.415C30.3329 43.415 33.846 46.8588 33.846 51.11C33.8379 55.3613 30.3329 58.7971 25.996 58.805ZM25.996 44.9984C22.5556 44.9984 19.7612 47.7375 19.7612 51.11C19.7612 54.4825 22.5556 57.2217 25.996 57.2217C29.4364 57.2217 32.2308 54.4825 32.2308 51.11C32.2227 47.7375 29.4364 45.0063 25.996 44.9984Z" fill="black"/>
<path d="M38.6432 38.6966C35.4935 35.5932 31.2616 33.7645 26.8035 33.5824V30.1782H25.1883V33.5824C23.1127 33.6695 21.0614 34.1049 19.1393 34.8886C9.99707 38.5936 5.65211 48.8695 9.43982 57.8311C10.3363 59.9607 11.6608 61.8924 13.3164 63.5232C20.3103 70.3791 31.6492 70.3791 38.6432 63.5232C45.6371 56.6674 45.6371 45.5524 38.6432 38.6966ZM37.5044 62.407C31.1404 68.6453 20.8272 68.6374 14.4713 62.407C8.11533 56.1766 8.11533 46.0591 14.4713 39.8286C20.8272 33.5982 31.1485 33.5982 37.5044 39.8286C40.5572 42.8211 42.2693 46.8824 42.2774 51.1099C42.2774 55.3453 40.5572 59.4066 37.5044 62.407Z" fill="black"/>
<path d="M26.7876 37.1211H25.1724V41.4436H26.7876V37.1211Z" fill="black"/>
<path d="M26.8037 60.7842H25.1885V65.1067H26.8037V60.7842Z" fill="black"/>
<path d="M40.2665 50.3103H35.8569V51.8936H40.2665V50.3103Z" fill="black"/>
<path d="M16.1269 50.3262H11.7173V51.9095H16.1269V50.3262Z" fill="black"/>
<path d="M34.5166 41.6446L33.3745 42.7642L34.5166 43.8837L35.6588 42.7642L34.5166 41.6446Z" fill="black"/>
<path d="M17.4351 58.3443L16.293 59.4639L17.4351 60.5834L18.5772 59.4639L17.4351 58.3443Z" fill="black"/>
<path d="M17.4644 41.6216L16.3223 42.7412L17.4644 43.8608L18.6065 42.7412L17.4644 41.6216Z" fill="black"/>
<path d="M34.5005 58.3663L33.3584 59.4858L34.5005 60.6054L35.6427 59.4858L34.5005 58.3663Z" fill="black"/>
</g>
<defs>
<clipPath id="clip0">
<rect width="76" height="76" fill="white"/>
</clipPath>
</defs>
</svg>
