<?xml version="1.0" encoding="utf-8"?>
<!-- Generator: Adobe Illustrator 25.0.0, SVG Export Plug-In . SVG Version: 6.00 Build 0)  -->
<svg version="1.1" id="Layer_1" xmlns="http://www.w3.org/2000/svg" xmlns:xlink="http://www.w3.org/1999/xlink" x="0px" y="0px"
	 viewBox="0 0 14.4 14.4" style="enable-background:new 0 0 14.4 14.4;" xml:space="preserve">
<style type="text/css">
	.st0{fill:#0FD297;}
</style>
<g>
	<g>
		<g>
			<g>
				<path class="st0" d="M7.91,8.43c0.17,0.23,0.34,0.46,0.53,0.68C8.78,9.5,9.17,9.82,9.68,9.98c0.28,0.08,0.57,0.12,0.86,0.15
					c0.02,0,0.04,0,0.05,0.03c0.15,0.29,0.23,0.59,0.2,0.92c0,0.03-0.01,0.05-0.01,0.08c0,0.01-0.01,0.01-0.01,0.01
					c-0.07-0.07-0.13-0.13-0.2-0.18c-0.24-0.18-0.5-0.3-0.8-0.31c-0.4-0.02-0.75,0.22-0.89,0.61c-0.11,0.31-0.11,0.63-0.03,0.95
					c0,0.02,0.01,0.03,0.01,0.05c0,0.01,0,0.02-0.01,0.02c-0.12-0.03-0.23-0.1-0.33-0.16c-0.19-0.13-0.33-0.3-0.45-0.49
					c-0.02-0.03-0.01-0.05,0-0.08c0.1-0.22,0.19-0.43,0.25-0.66c0.13-0.46,0.11-0.92-0.01-1.37c-0.1-0.36-0.24-0.7-0.39-1.04
					C7.9,8.48,7.9,8.46,7.89,8.44C7.88,8.42,7.9,8.42,7.91,8.43z"/>
				<path class="st0" d="M7.22,12.64c-0.01,0.02-0.04,0.02-0.04,0c-0.16-0.43-0.37-0.82-0.55-1.22c-0.12-0.27-0.23-0.53-0.27-0.82
					l0,0c0-0.02,0.02-0.03,0.03-0.02c0.53,0.24,1.06,0.24,1.6,0c0.02-0.01,0.03,0.01,0.03,0.02c-0.03,0.22-0.09,0.41-0.17,0.6
					c-0.14,0.35-0.32,0.69-0.47,1.04C7.33,12.36,7.27,12.49,7.22,12.64z"/>
				<path class="st0" d="M7.16,7.72c0.01-0.02,0.04-0.02,0.05,0c0.02,0.05,0.04,0.11,0.07,0.16c0.15,0.35,0.31,0.71,0.46,1.06
					c0.05,0.11,0.08,0.22,0.12,0.33c0.01,0.04,0.01,0.06-0.03,0.07c-0.43,0.16-0.86,0.16-1.29,0C6.51,9.33,6.5,9.31,6.52,9.28
					c0.13-0.39,0.31-0.76,0.47-1.13C7.05,8,7.1,7.86,7.16,7.72L7.16,7.72z"/>
			</g>
			<path class="st0" d="M11,10.17c0-0.01,0-0.02,0.02-0.02c0.29,0.02,0.56,0.05,0.84,0.1c0.04,0.01,0.04,0.03,0.04,0.06
				c0.06,0.4,0.05,0.8-0.03,1.2c-0.1,0.48-0.3,0.91-0.63,1.27c-0.51,0.55-1.14,0.79-1.88,0.75c-0.68-0.03-1.27-0.29-1.8-0.71
				c-0.03-0.02-0.03-0.04-0.02-0.07c0.09-0.27,0.2-0.52,0.33-0.77l0,0c0.01-0.01,0.02-0.01,0.03,0c0.61,0.78,1.63,0.99,2.43,0.49
				C11.04,12,11.36,11.09,11,10.17z"/>
		</g>
		<g>
			<g>
				<path class="st0" d="M6.49,8.44c-0.12,0.26-0.23,0.52-0.32,0.8c-0.17,0.49-0.25,0.99-0.13,1.51c0.07,0.28,0.18,0.55,0.3,0.82
					c0.01,0.02,0.02,0.04,0,0.06c-0.17,0.27-0.39,0.5-0.7,0.63c-0.02,0.01-0.05,0.02-0.08,0.03c-0.01,0-0.01,0-0.01-0.01
					c0.02-0.09,0.04-0.18,0.05-0.27c0.04-0.3,0.01-0.59-0.13-0.85c-0.19-0.36-0.57-0.54-0.97-0.47c-0.33,0.06-0.6,0.22-0.84,0.45
					c-0.01,0.01-0.02,0.02-0.04,0.03c-0.01,0.01-0.01,0.01-0.02,0c-0.03-0.12-0.03-0.24-0.02-0.36c0.02-0.23,0.09-0.43,0.2-0.63
					c0.02-0.03,0.04-0.03,0.07-0.03c0.23-0.02,0.47-0.06,0.7-0.11c0.46-0.11,0.85-0.36,1.19-0.69c0.26-0.26,0.48-0.56,0.7-0.85
					c0.01-0.02,0.03-0.03,0.04-0.05C6.48,8.42,6.49,8.43,6.49,8.44z"/>
				<path class="st0" d="M2.5,9.95c-0.02,0-0.04-0.02-0.02-0.04C2.77,9.57,3,9.19,3.26,8.83C3.43,8.6,3.61,8.37,3.84,8.19l0,0
					c0.02-0.01,0.04,0,0.04,0.02c0.06,0.58,0.33,1.04,0.8,1.38C4.69,9.6,4.69,9.62,4.67,9.63c-0.2,0.08-0.4,0.12-0.6,0.15
					C3.7,9.84,3.32,9.85,2.94,9.89C2.79,9.91,2.65,9.92,2.5,9.95z"/>
				<path class="st0" d="M6.73,7.44c0.03,0,0.04,0.03,0.03,0.05C6.72,7.54,6.68,7.58,6.65,7.63C6.42,7.94,6.19,8.25,5.96,8.56
					C5.89,8.65,5.81,8.74,5.73,8.83C5.71,8.86,5.69,8.87,5.66,8.84C5.3,8.55,5.09,8.18,5.01,7.73C5.01,7.68,5.02,7.67,5.06,7.66
					c0.4-0.08,0.81-0.11,1.22-0.16C6.43,7.49,6.58,7.46,6.73,7.44L6.73,7.44z"/>
			</g>
			<path class="st0" d="M6.53,11.99c0.01-0.01,0.02-0.01,0.03,0c0.13,0.26,0.24,0.51,0.33,0.78c0.01,0.04-0.01,0.05-0.03,0.06
				c-0.32,0.26-0.67,0.45-1.05,0.57c-0.46,0.15-0.94,0.19-1.41,0.09c-0.73-0.16-1.25-0.6-1.59-1.26c-0.31-0.6-0.39-1.25-0.29-1.91
				c0.01-0.03,0.02-0.05,0.05-0.05c0.27-0.06,0.55-0.08,0.83-0.1l0,0c0.01,0,0.02,0.01,0.02,0.02c-0.37,0.92-0.04,1.91,0.79,2.35
				C4.96,12.95,5.91,12.76,6.53,11.99z"/>
		</g>
	</g>
	<g>
		<g>
			<g>
				<path class="st0" d="M6.47,5.97C6.3,5.74,6.14,5.51,5.95,5.29C5.6,4.9,5.21,4.58,4.7,4.42C4.42,4.34,4.14,4.3,3.85,4.27
					c-0.02,0-0.04,0-0.05-0.03C3.64,3.96,3.56,3.65,3.6,3.33c0-0.03,0.01-0.05,0.01-0.08c0-0.01,0.01-0.01,0.01,0
					c0.07,0.07,0.13,0.13,0.21,0.18c0.24,0.18,0.5,0.3,0.8,0.31c0.4,0.02,0.75-0.22,0.89-0.61c0.11-0.31,0.11-0.63,0.03-0.95
					c0-0.02-0.01-0.03-0.01-0.05c0-0.01,0-0.02,0.01-0.01C5.67,2.14,5.78,2.2,5.88,2.27c0.19,0.13,0.33,0.3,0.45,0.49
					c0.02,0.03,0.01,0.05,0,0.08C6.23,3.05,6.14,3.27,6.07,3.5C5.94,3.96,5.96,4.41,6.08,4.87c0.09,0.36,0.24,0.7,0.39,1.03
					c0.01,0.02,0.01,0.04,0.02,0.06C6.5,5.98,6.48,5.98,6.47,5.97z"/>
				<path class="st0" d="M7.16,1.76c0.01-0.02,0.04-0.02,0.04,0c0.16,0.43,0.37,0.82,0.55,1.22c0.12,0.27,0.23,0.54,0.27,0.83l0,0
					c0,0.02-0.02,0.03-0.03,0.02c-0.53-0.23-1.06-0.23-1.6,0C6.37,3.84,6.36,3.83,6.36,3.81C6.39,3.6,6.45,3.4,6.53,3.22
					C6.66,2.86,6.84,2.52,7,2.17C7.06,2.04,7.11,1.91,7.16,1.76z"/>
				<path class="st0" d="M7.22,6.68c-0.01,0.02-0.04,0.02-0.05,0C7.14,6.63,7.12,6.57,7.1,6.52C6.95,6.16,6.79,5.81,6.64,5.45
					C6.59,5.35,6.56,5.24,6.52,5.13C6.5,5.09,6.51,5.07,6.55,5.06c0.43-0.16,0.86-0.16,1.29,0c0.04,0.01,0.04,0.03,0.03,0.07
					C7.73,5.51,7.56,5.88,7.39,6.26C7.33,6.4,7.28,6.54,7.22,6.68L7.22,6.68z"/>
			</g>
			<path class="st0" d="M3.38,4.23c0.01,0.01,0,0.02-0.02,0.02C3.08,4.24,2.8,4.21,2.53,4.15C2.49,4.15,2.49,4.12,2.49,4.1
				C2.42,3.7,2.43,3.3,2.52,2.9c0.11-0.48,0.3-0.91,0.63-1.27C3.66,1.08,4.3,0.84,5.04,0.88c0.68,0.04,1.27,0.29,1.8,0.71
				c0.03,0.02,0.03,0.04,0.02,0.07c-0.09,0.26-0.2,0.52-0.33,0.77l0,0c-0.01,0.01-0.02,0.01-0.03,0C5.89,1.65,4.87,1.44,4.07,1.94
				C3.34,2.4,3.02,3.31,3.38,4.23z"/>
		</g>
		<g>
			<g>
				<path class="st0" d="M7.89,5.96c0.12-0.26,0.23-0.52,0.32-0.8c0.17-0.49,0.25-0.99,0.13-1.51C8.28,3.36,8.17,3.1,8.05,2.83
					c-0.01-0.02-0.02-0.04,0-0.06c0.18-0.28,0.39-0.5,0.7-0.63C8.77,2.13,8.8,2.12,8.83,2.11c0.01,0,0.01,0,0.01,0.01
					C8.81,2.21,8.79,2.3,8.78,2.39c-0.04,0.3-0.01,0.59,0.13,0.85C9.1,3.6,9.48,3.78,9.88,3.71c0.33-0.06,0.6-0.22,0.84-0.45
					c0.01-0.01,0.02-0.02,0.03-0.03c0.01-0.01,0.01-0.01,0.02,0c0.03,0.12,0.03,0.24,0.02,0.36c-0.02,0.22-0.09,0.43-0.2,0.63
					c-0.02,0.03-0.04,0.03-0.07,0.03c-0.23,0.02-0.47,0.06-0.7,0.11C9.37,4.49,8.99,4.73,8.65,5.06c-0.26,0.26-0.48,0.56-0.7,0.85
					C7.93,5.93,7.92,5.95,7.91,5.97C7.9,5.98,7.89,5.97,7.89,5.96z"/>
				<path class="st0" d="M11.88,4.45c0.02,0,0.03,0.02,0.02,0.04c-0.3,0.35-0.52,0.73-0.78,1.08c-0.17,0.23-0.35,0.46-0.58,0.64l0,0
					c-0.01,0.01-0.03,0-0.04-0.02c-0.06-0.58-0.33-1.04-0.8-1.38C9.69,4.8,9.69,4.78,9.71,4.77c0.2-0.08,0.4-0.12,0.6-0.15
					c0.38-0.06,0.76-0.07,1.14-0.11C11.59,4.49,11.73,4.48,11.88,4.45z"/>
				<path class="st0" d="M7.65,6.96c-0.03,0-0.04-0.03-0.03-0.05C7.66,6.86,7.7,6.82,7.73,6.77c0.23-0.31,0.46-0.62,0.69-0.93
					c0.07-0.09,0.15-0.18,0.22-0.27c0.03-0.03,0.04-0.04,0.08-0.01c0.36,0.29,0.57,0.66,0.65,1.11c0.01,0.04-0.01,0.05-0.05,0.06
					C8.92,6.82,8.51,6.85,8.11,6.9C7.95,6.91,7.8,6.94,7.65,6.96L7.65,6.96z"/>
			</g>
			<path class="st0" d="M7.85,2.41c-0.01,0.01-0.02,0.01-0.03,0C7.7,2.15,7.58,1.89,7.49,1.63C7.48,1.59,7.5,1.58,7.52,1.57
				C7.84,1.31,8.19,1.12,8.58,1C9.04,0.85,9.51,0.8,9.99,0.91c0.73,0.16,1.26,0.59,1.59,1.26c0.31,0.6,0.39,1.25,0.29,1.91
				c-0.01,0.03-0.02,0.05-0.05,0.05c-0.27,0.05-0.55,0.08-0.83,0.1l0,0c-0.01,0-0.02-0.01-0.02-0.02c0.37-0.92,0.04-1.91-0.79-2.35
				C9.42,1.45,8.47,1.64,7.85,2.41z"/>
		</g>
	</g>
	<g>
		<g>
			<path class="st0" d="M8.62,7.18c0.29-0.03,0.57-0.06,0.85-0.12c0.51-0.1,0.98-0.28,1.37-0.64c0.21-0.2,0.39-0.43,0.56-0.67
				c0.01-0.02,0.02-0.03,0.05-0.03c0.33,0.01,0.63,0.09,0.9,0.29c0.02,0.01,0.04,0.03,0.07,0.05c0.01,0,0,0.01,0,0.01
				c-0.09,0.03-0.18,0.05-0.26,0.09c-0.27,0.12-0.51,0.28-0.67,0.54c-0.22,0.34-0.18,0.76,0.08,1.08c0.21,0.26,0.49,0.41,0.81,0.51
				c0.02,0.01,0.03,0.01,0.05,0.01c0.01,0,0.02,0.01,0.01,0.01c-0.09,0.09-0.19,0.15-0.31,0.2c-0.2,0.1-0.42,0.14-0.65,0.15
				c-0.04,0-0.05-0.02-0.06-0.04c-0.14-0.19-0.28-0.38-0.45-0.55c-0.33-0.34-0.74-0.56-1.19-0.68c-0.36-0.1-0.72-0.14-1.09-0.18
				c-0.02,0-0.04-0.01-0.06-0.01C8.61,7.2,8.61,7.19,8.62,7.18z"/>
			<path class="st0" d="M11.93,9.89c0.01,0.02,0,0.04-0.02,0.04c-0.45-0.08-0.89-0.09-1.33-0.14C10.28,9.75,10,9.71,9.73,9.6l0,0
				C9.71,9.6,9.7,9.57,9.72,9.56c0.47-0.34,0.74-0.8,0.8-1.38c0-0.02,0.02-0.03,0.04-0.02c0.17,0.13,0.31,0.28,0.43,0.44
				c0.24,0.3,0.44,0.62,0.67,0.93C11.73,9.65,11.82,9.77,11.93,9.89z"/>
			<path class="st0" d="M7.64,7.47c-0.02-0.02,0-0.05,0.03-0.04c0.06,0.01,0.12,0.02,0.17,0.03C8.22,7.5,8.6,7.54,8.99,7.59
				C9.1,7.6,9.22,7.63,9.33,7.64C9.38,7.65,9.39,7.66,9.38,7.7C9.31,8.16,9.09,8.53,8.74,8.82C8.7,8.85,8.69,8.84,8.66,8.81
				C8.39,8.5,8.16,8.17,7.91,7.84C7.82,7.72,7.73,7.6,7.64,7.47L7.64,7.47z"/>
		</g>
		<path class="st0" d="M11.67,5.38c-0.01,0-0.02-0.01-0.01-0.03c0.16-0.24,0.32-0.47,0.51-0.68c0.02-0.03,0.05-0.02,0.07-0.01
			c0.38,0.14,0.72,0.35,1.02,0.63c0.36,0.33,0.64,0.72,0.78,1.18c0.23,0.71,0.11,1.38-0.29,2.01c-0.37,0.57-0.88,0.96-1.51,1.2
			c-0.03,0.01-0.05,0.01-0.07-0.02c-0.19-0.21-0.35-0.44-0.5-0.67l0,0c-0.01-0.01,0-0.02,0.01-0.02c0.98-0.14,1.68-0.92,1.64-1.86
			C13.29,6.26,12.65,5.52,11.67,5.38z"/>
	</g>
	<g>
		<g>
			<path class="st0" d="M5.78,7.21C5.49,7.24,5.21,7.27,4.92,7.32C4.41,7.42,3.94,7.6,3.55,7.97C3.34,8.17,3.16,8.4,2.99,8.63
				C2.98,8.65,2.97,8.67,2.94,8.66C2.62,8.65,2.31,8.57,2.05,8.37C2.03,8.36,2.01,8.34,1.98,8.32c0-0.01,0-0.01,0-0.02
				c0.09-0.02,0.18-0.05,0.26-0.09C2.52,8.1,2.76,7.94,2.92,7.68C3.13,7.34,3.1,6.92,2.84,6.61C2.62,6.35,2.35,6.19,2.03,6.1
				C2.01,6.1,2,6.09,1.98,6.09c-0.01,0-0.01-0.01-0.01-0.01c0.09-0.09,0.2-0.15,0.31-0.2c0.2-0.1,0.42-0.14,0.64-0.15
				c0.04,0,0.05,0.02,0.07,0.04c0.14,0.19,0.28,0.38,0.45,0.55C3.77,6.66,4.17,6.87,4.63,7c0.36,0.1,0.72,0.14,1.09,0.18
				c0.02,0,0.04,0.01,0.06,0.01C5.79,7.19,5.79,7.21,5.78,7.21z"/>
			<path class="st0" d="M2.47,4.51c-0.01-0.02,0-0.04,0.02-0.04c0.45,0.08,0.89,0.09,1.33,0.14C4.12,4.64,4.4,4.68,4.67,4.79l0,0
				C4.69,4.8,4.69,4.82,4.68,4.83c-0.47,0.34-0.74,0.8-0.8,1.39c0,0.02-0.02,0.03-0.04,0.01c-0.17-0.13-0.3-0.28-0.43-0.44
				c-0.24-0.3-0.44-0.62-0.67-0.93C2.66,4.74,2.58,4.63,2.47,4.51z"/>
			<path class="st0" d="M6.76,6.92c0.02,0.02,0,0.05-0.03,0.05C6.68,6.95,6.62,6.94,6.56,6.94C6.18,6.89,5.79,6.85,5.41,6.8
				C5.29,6.79,5.18,6.77,5.06,6.75C5.02,6.74,5.01,6.73,5.02,6.69c0.07-0.45,0.29-0.82,0.64-1.12C5.7,5.54,5.71,5.55,5.74,5.58
				c0.27,0.31,0.5,0.64,0.75,0.97C6.58,6.68,6.67,6.8,6.76,6.92L6.76,6.92z"/>
		</g>
		<path class="st0" d="M2.73,9.02c0.01,0,0.02,0.02,0.01,0.03C2.58,9.28,2.41,9.51,2.23,9.72C2.2,9.75,2.18,9.73,2.16,9.72
			C1.78,9.58,1.44,9.37,1.14,9.1C0.78,8.77,0.51,8.38,0.36,7.91C0.13,7.2,0.25,6.53,0.65,5.91c0.37-0.57,0.88-0.96,1.51-1.2
			C2.19,4.69,2.21,4.7,2.23,4.72c0.18,0.21,0.35,0.44,0.5,0.67l0,0c0.01,0.01,0,0.02-0.01,0.03C1.74,5.56,1.05,6.33,1.08,7.27
			C1.11,8.13,1.75,8.87,2.73,9.02z"/>
	</g>
</g>
</svg>
