<?xml version="1.0"?>
<svg xmlns="http://www.w3.org/2000/svg" xmlns:xlink="http://www.w3.org/1999/xlink" xmlns:svgjs="http://svgjs.com/svgjs" version="1.1" width="512" height="512" x="0" y="0" viewBox="0 0 512 512" style="enable-background:new 0 0 512 512" xml:space="preserve" class=""><g><path xmlns="http://www.w3.org/2000/svg" d="m64 0h384c35.347656 0 64 28.652344 64 64v384c0 35.347656-28.652344 64-64 64h-384c-35.347656 0-64-28.652344-64-64v-384c0-35.347656 28.652344-64 64-64zm0 0" fill="#80878f" data-original="#a8918c" style="" class=""/><path xmlns="http://www.w3.org/2000/svg" d="m400 160v-32h-74.304688l-69.695312 153.328125-69.695312-153.328125h-74.304688v32h32v192h-32v32h64v-201.34375l80 176.015625 80-176.015625v201.34375h64v-32h-32v-192zm0 0" fill="#ffffff" data-original="#ffffff" style=""/></g></svg>
