<?xml version="1.0" encoding="utf-8"?>
<!-- Generator: Adobe Illustrator 24.3.0, SVG Export Plug-In . SVG Version: 6.00 Build 0)  -->
<svg version="1.1" id="Layer_1" xmlns="http://www.w3.org/2000/svg" xmlns:xlink="http://www.w3.org/1999/xlink" x="0px" y="0px"
	 viewBox="0 0 103 13" style="enable-background:new 0 0 103 13;" xml:space="preserve">
<style type="text/css">
	.st0{fill:#F0B90B;}
</style>
<path class="st0" d="M2.8,6.3L1.4,7.7L0,6.3l1.4-1.4L2.8,6.3z M6.3,2.8l2.4,2.4l1.4-1.4L6.3,0L2.4,3.9l1.4,1.4L6.3,2.8z M11.2,4.9
	L9.7,6.3l1.4,1.4l1.4-1.4L11.2,4.9z M6.3,9.7L3.9,7.3L2.4,8.7l3.9,3.9l3.9-3.9L8.7,7.3L6.3,9.7z M6.3,7.7l1.4-1.4L6.3,4.9L4.9,6.3
	L6.3,7.7z"/>
<path class="st0" d="M21.3,7.7L21.3,7.7c0-0.9-0.5-1.4-1.3-1.7c0.5-0.3,0.9-0.7,0.9-1.5v0c0-1.1-0.9-1.8-2.3-1.8h-3.2v6.9h3.3
	C20.3,9.6,21.3,8.9,21.3,7.7L21.3,7.7z M19.4,4.7c0,0.5-0.4,0.7-1.1,0.7h-1.4V4h1.5C19,4,19.4,4.2,19.4,4.7L19.4,4.7z M19.8,7.5
	c0,0.5-0.4,0.7-1.1,0.7h-1.8V6.7h1.8C19.4,6.7,19.8,7,19.8,7.5L19.8,7.5z M24.5,9.5V2.7h-1.5v6.9L24.5,9.5z M32.6,9.5V2.7h-1.5v4.2
	l-3.2-4.2h-1.4v6.9H28V5.2l3.3,4.4L32.6,9.5z M41,9.5l-3-6.9h-1.4l-3,6.9h1.5L35.9,8h2.9l0.6,1.5L41,9.5z M38.3,6.7h-1.8l0.9-2.2
	L38.3,6.7z M48.2,9.5V2.7h-1.5v4.2l-3.2-4.2h-1.4v6.9h1.5V5.2L47,9.6L48.2,9.5z M56.1,8.4l-1-1c-0.5,0.5-1,0.8-1.8,0.8
	c-1.2,0-2-1-2-2.2v0c0-1.2,0.8-2.1,2-2.1c0.7,0,1.2,0.3,1.8,0.8l1-1.1c-0.6-0.6-1.4-1.1-2.7-1.1c-2.1,0-3.6,1.6-3.6,3.6v0
	c0,2,1.5,3.5,3.5,3.5C54.6,9.7,55.4,9.2,56.1,8.4z M62.5,9.6V8.2h-3.7V6.8h3.3V5.4h-3.3V4h3.7V2.7h-5.2v6.9L62.5,9.6z M70.4,9.7
	c-2,0-3.5-1.6-3.5-3.6c0-2,1.5-3.6,3.6-3.6c1.3,0,2,0.4,2.7,1.1l-0.8,0.9c-0.6-0.5-1.1-0.9-1.9-0.9c-1.3,0-2.3,1.1-2.3,2.5
	s1,2.5,2.3,2.5c0.9,0,1.4-0.3,2-0.9l0.8,0.8C72.5,9.2,71.7,9.7,70.4,9.7L70.4,9.7z M74.5,2.6h1.2v5.8h3.6v1.1h-4.9L74.5,2.6z
	 M83.8,9.7c-2.1,0-3.6-1.6-3.6-3.6s1.5-3.6,3.6-3.6c2.1,0,3.6,1.6,3.6,3.6S85.9,9.7,83.8,9.7L83.8,9.7z M83.8,3.6
	c-1.4,0-2.3,1.1-2.3,2.5c0,1.4,1,2.5,2.4,2.5c1.4,0,2.3-1.1,2.3-2.5S85.1,3.6,83.8,3.6L83.8,3.6z M94.8,6.6c0,2.1-1.2,3.1-3,3.1
	c-1.8,0-2.9-1-2.9-3v-4h1.2v3.9c0,1.3,0.7,2,1.8,2c1.1,0,1.7-0.7,1.7-1.9v-4h1.2L94.8,6.6z M99.3,9.6h-2.6V2.6h2.6
	c2.2,0,3.7,1.5,3.7,3.5S101.5,9.6,99.3,9.6z M99.3,3.7H98v4.7h1.4c1.5,0,2.4-1,2.4-2.3S100.8,3.7,99.3,3.7z"/>
</svg>
