<?xml version="1.0" encoding="utf-8"?>
<svg viewBox="0 0 119 45" style="enable-background:new 0 0 119 45;" xmlns="http://www.w3.org/2000/svg">
  <defs>
    <style type="text/css">
	.st0{fill:#FFFFFF;}
	.st1{fill:#92C039;}
</style>
  </defs>
  <g>
    <path class="st0" d="M0.3,44.7C0.1,44.4,0,44.2,0,43.8v-2.7c0-0.3,0.1-0.6,0.3-0.8c0.2-0.2,0.5-0.3,0.9-0.3h1.3 c1.4,0,2.3-0.4,2.8-1.1C5.8,38.1,6,37.1,6,35.7V11.4c0-0.4,0.1-0.7,0.3-0.9c0.2-0.2,0.5-0.3,0.8-0.3h3.7c0.3,0,0.6,0.1,0.8,0.3 c0.2,0.2,0.3,0.5,0.3,0.9v24.3c0,2.9-0.8,5.2-2.3,6.8C8.2,44.2,6,45,3,45H1.2C0.8,45,0.5,44.9,0.3,44.7z" style="fill: rgb(77, 86, 97);"/>
    <path class="st0" d="M18.3,31.4c-1.6-1.9-2.3-4.5-2.3-7.8V10.3c0-0.4,0.1-0.6,0.3-0.8c0.2-0.2,0.4-0.3,0.7-0.3h3.9 c0.3,0,0.6,0.1,0.8,0.3C21.9,9.7,22,10,22,10.3V23c0,3.8,1.6,5.7,4.9,5.7c1.6,0,2.8-0.5,3.8-1.5c0.9-1,1.4-2.4,1.4-4.2V10.3 c0-0.4,0.1-0.6,0.3-0.8c0.2-0.2,0.4-0.3,0.7-0.3H37c0.3,0,0.6,0.1,0.8,0.3C37.9,9.7,38,10,38,10.3v22.3c0,0.3-0.1,0.6-0.3,0.8 c-0.2,0.2-0.4,0.3-0.8,0.3h-3.9c-0.3,0-0.5-0.1-0.7-0.3c-0.2-0.2-0.3-0.5-0.3-0.8v-1.9c-1.6,2.4-4,3.5-7.3,3.5 C22,34.2,19.9,33.3,18.3,31.4z" style="fill: rgb(77, 86, 97);"/>
    <path class="st0" d="M43.3,33.4c-0.2-0.2-0.3-0.5-0.3-0.8V10.3c0-0.4,0.1-0.6,0.3-0.8c0.2-0.2,0.5-0.3,0.8-0.3h2.8 c0.3,0,0.6,0.1,0.8,0.3C47.9,9.7,48,10,48,10.3v1.6c1.7-2.1,3.9-3.2,6.7-3.2c3.4,0,5.8,1.4,7.2,4.2c0.7-1.3,1.8-2.3,3.1-3 c1.4-0.8,2.8-1.2,4.4-1.2c2.5,0,4.6,0.9,6.2,2.6c1.6,1.8,2.4,4.3,2.4,7.7v13.6c0,0.3-0.1,0.6-0.3,0.8c-0.2,0.2-0.5,0.3-0.8,0.3 h-3.8c-0.3,0-0.6-0.1-0.8-0.3S72,33,72,32.6V19.7c0-1.9-0.4-3.3-1.3-4.2s-1.9-1.3-3.3-1.3c-1.2,0-2.3,0.4-3.1,1.3 c-0.9,0.9-1.3,2.3-1.3,4.2v12.9c0,0.3-0.1,0.6-0.3,0.8c-0.2,0.2-0.5,0.3-0.8,0.3h-2.7c-0.3,0-0.6-0.1-0.8-0.3 C58.1,33.2,58,33,58,32.6V19.7c0-1.9-0.4-3.3-1.3-4.2c-0.9-0.9-1.9-1.3-3.3-1.3c-1.2,0-2.3,0.4-3.1,1.3S49,17.8,49,19.7v12.9 c0,0.3-0.1,0.6-0.3,0.8c-0.2,0.2-0.5,0.3-0.8,0.3h-3.8C43.8,33.8,43.5,33.6,43.3,33.4z" style="fill: rgb(77, 86, 97);"/>
    <path class="st1" d="M82.3,33.4c-0.2-0.2-0.3-0.5-0.3-0.8V10.3c0-0.4,0.1-0.6,0.3-0.8c0.2-0.2,0.5-0.3,0.8-0.3h3.8 c0.3,0,0.6,0.1,0.8,0.3S88,10,88,10.3v22.3c0,0.3-0.1,0.6-0.3,0.8c-0.2,0.2-0.5,0.3-0.8,0.3h-3.8C82.8,33.8,82.5,33.6,82.3,33.4z" style="fill: rgb(77, 86, 97);"/>
    <path class="st0" d="M94.5,31.4c-1.9-1.8-3-4.4-3.1-7.7l0-2l0-2c0.1-3.2,1.2-5.8,3.2-7.7c2-1.9,4.7-2.8,8.3-2.8 c3.5,0,6.2,0.9,8.2,2.8c2,1.9,3,4.4,3.2,7.7c0,0.4,0,1.1,0,2c0,1,0,1.7,0,2c-0.1,3.3-1.2,5.8-3.1,7.7s-4.7,2.8-8.3,2.8 C99.2,34.1,96.5,33.2,94.5,31.4z M106.6,27.9c0.9-1,1.3-2.5,1.4-4.5c0-0.3,0-0.9,0-1.8c0-0.9,0-1.5,0-1.8c-0.1-2-0.5-3.5-1.4-4.5 c-0.9-1-2.1-1.5-3.7-1.5s-2.9,0.5-3.7,1.5s-1.4,2.5-1.4,4.5l0,1.8l0,1.8c0.1,2,0.5,3.5,1.4,4.5c0.9,1,2.1,1.5,3.7,1.5 C104.4,29.4,105.7,28.9,106.6,27.9z" style="fill: rgb(77, 86, 97);"/>
    <path class="st1" d="M82.3,5.8C82.1,5.6,82,5.3,82,5V1.3c0-0.4,0.1-0.7,0.3-0.9C82.5,0.1,82.7,0,83,0h3.9c0.3,0,0.6,0.1,0.8,0.3 C87.9,0.6,88,0.9,88,1.3v3.7c0,0.3-0.1,0.6-0.3,0.9s-0.5,0.3-0.7,0.3H83C82.7,6.2,82.5,6.1,82.3,5.8z" style="fill: rgb(77, 86, 97);"/>
    <path class="st0" d="M5.3,5.8C5.1,5.6,5,5.3,5,5V1.3c0-0.4,0.1-0.7,0.3-0.9C5.6,0.1,5.8,0,6.2,0h4.6c0.4,0,0.7,0.1,0.9,0.3 C11.9,0.6,12,0.9,12,1.3v3.7c0,0.3-0.1,0.6-0.4,0.9c-0.2,0.2-0.5,0.3-0.9,0.3H6.2C5.8,6.2,5.6,6.1,5.3,5.8z" style="fill: rgb(77, 86, 97);"/>
    <g>
      <path class="st0" d="M116.9,29.4c1.2,0,2.1,1,2.1,2.2c0,1.2-0.9,2.2-2.2,2.2s-2.2-1-2.2-2.2C114.7,30.4,115.6,29.4,116.9,29.4 L116.9,29.4z M116.8,29.8c-1,0-1.7,0.8-1.7,1.8c0,1,0.7,1.8,1.7,1.8c0.9,0,1.7-0.8,1.7-1.8C118.5,30.6,117.8,29.8,116.8,29.8 L116.8,29.8z M116,32.7L116,32.7v-2.3c0.2-0.1,0.4-0.1,0.7-0.1c0.3,0,0.5,0.1,0.7,0.2c0.1,0.1,0.2,0.3,0.2,0.5 c0,0.3-0.2,0.5-0.6,0.5v0c0.4,0.1,0.5,0.3,0.5,0.6c0.1,0.4,0.1,0.5,0.2,0.6h-0.4c-0.1-0.1-0.1-0.3-0.2-0.6c0-0.3-0.2-0.4-0.5-0.4 h-0.3L116,32.7L116,32.7z M116.5,31.7h0.3c0.3,0,0.6-0.1,0.6-0.3c0-0.2-0.1-0.4-0.5-0.4c-0.2,0-0.2,0-0.3,0L116.5,31.7L116.5,31.7 z" style="fill: rgb(77, 86, 97);"/>
    </g>
  </g>
</svg>